<?xml version="1.0" encoding="UTF-8" standalone="no"?>
<!-- Created with Inkscape (http://www.inkscape.org/) -->

<svg
   width="120"
   height="120"
   viewBox="0 0 120 120"
   version="1.1"
   id="svg5"
   inkscape:version="1.1.1 (3bf5ae0d25, 2021-09-20, custom)"
   sodipodi:docname="drawing.svg"
   xmlns:inkscape="http://www.inkscape.org/namespaces/inkscape"
   xmlns:sodipodi="http://sodipodi.sourceforge.net/DTD/sodipodi-0.dtd"
   xmlns="http://www.w3.org/2000/svg"
   xmlns:svg="http://www.w3.org/2000/svg">
  <sodipodi:namedview
     id="namedview7"
     pagecolor="#ffffff"
     bordercolor="#666666"
     borderopacity="1.0"
     inkscape:pageshadow="2"
     inkscape:pageopacity="0.0"
     inkscape:pagecheckerboard="0"
     inkscape:document-units="px"
     showgrid="false"
     inkscape:snap-global="false"
     inkscape:zoom="3.5998461"
     inkscape:cx="6.9447412"
     inkscape:cy="76.669943"
     inkscape:window-width="1920"
     inkscape:window-height="1080"
     inkscape:window-x="0"
     inkscape:window-y="0"
     inkscape:window-maximized="1"
     inkscape:current-layer="layer1" />
  <defs
     id="defs2">
    <inkscape:path-effect
       effect="lattice2"
       gridpoint0="30.259999,39.855"
       gridpoint1="100.8874,23.607719"
       gridpoint2="30.259999,78.094123"
       gridpoint3="100.8874,94.341404"
       gridpoint4="44.16537,23.607719"
       gridpoint5="83.580419,23.607719"
       gridpoint6="44.16537,94.341404"
       gridpoint7="83.580419,94.341404"
       gridpoint8x9="63.872895,23.607719"
       gridpoint10x11="63.872895,94.341404"
       gridpoint12="24.457845,41.291141"
       gridpoint13="103.28794,41.291141"
       gridpoint14="24.457845,76.657983"
       gridpoint15="103.28794,76.657983"
       gridpoint16="44.16537,41.291141"
       gridpoint17="83.580419,41.291141"
       gridpoint18="44.16537,76.657983"
       gridpoint19="83.580419,76.657983"
       gridpoint20x21="63.872895,41.291141"
       gridpoint22x23="63.872895,76.657983"
       gridpoint24x26="24.457845,58.974562"
       gridpoint25x27="103.28794,58.974562"
       gridpoint28x30="44.16537,58.974562"
       gridpoint29x31="83.580419,58.974562"
       gridpoint32x33x34x35="63.872895,58.974562"
       id="path-effect16027"
       is_visible="true"
       lpeversion="1"
       horizontal_mirror="true"
       vertical_mirror="false"
       perimetral="false"
       live_update="true" />
    <inkscape:path-effect
       effect="lattice2"
       gridpoint0="51.363,44.024843"
       gridpoint1="68.736,44.024843"
       gridpoint2="51.363,83.017031"
       gridpoint3="68.736,83.017031"
       gridpoint4="55.70625,44.024843"
       gridpoint5="64.39275,44.024843"
       gridpoint6="55.70625,83.017031"
       gridpoint7="64.39275,83.017031"
       gridpoint8x9="60.0495,44.024843"
       gridpoint10x11="60.0495,83.017031"
       gridpoint12="51.363,53.77289"
       gridpoint13="68.736,53.77289"
       gridpoint14="51.363,73.268984"
       gridpoint15="68.736,73.268984"
       gridpoint16="55.70625,53.77289"
       gridpoint17="64.39275,53.77289"
       gridpoint18="55.70625,73.268984"
       gridpoint19="64.39275,73.268984"
       gridpoint20x21="60.0495,53.77289"
       gridpoint22x23="60.0495,73.268984"
       gridpoint24x26="51.363,63.520937"
       gridpoint25x27="68.736,63.520937"
       gridpoint28x30="55.70625,63.520937"
       gridpoint29x31="64.39275,63.520937"
       gridpoint32x33x34x35="60.0495,63.520937"
       id="path-effect15250"
       is_visible="true"
       lpeversion="1"
       horizontal_mirror="false"
       vertical_mirror="false"
       perimetral="false"
       live_update="true" />
  </defs>
  <g
     inkscape:label="Layer 1"
     inkscape:groupmode="layer"
     id="layer1">
    <g
       id="g16025"
       transform="matrix(0.74237757,-1.5981846,2.0622422,0.57532352,-112.85867,133.7193)"
       inkscape:path-effect="#path-effect16027">
      <path
         id="path15756"
         style="fill:#ffd42a;stroke-width:0.502962"
         d="M 72.245659,85.001691 C 71.117746,84.948371 69.989167,84.819015 68.866478,84.617454 60.204649,83.062366 50.932678,76.857772 44.771136,72.037326 38.306702,66.979913 33.956971,62.420129 32.872185,57.982227 c -1.094725,-4.475139 0.898843,-9.259689 5.497767,-13.412469 4.532241,-4.126816 11.729599,-7.630392 19.058999,-10.311559 7.272008,-2.660176 15.13049,-4.674202 23.091352,-3.492514 8.136155,1.207713 16.520672,5.872549 19.350943,15.048683 2.779664,8.98808 -0.335078,21.245854 -6.483238,29.080268 -5.493676,7.051093 -13.152545,10.484771 -21.142349,10.107055 z m 3.739864,-15.8689 c 0.172035,-0.01816 0.341467,-0.04023 0.508585,-0.06444 0.167076,-0.0242 0.33176,-0.0512 0.492681,-0.08235 0.16093,-0.03114 0.319256,-0.06569 0.472804,-0.104674 0.153538,-0.03899 0.302731,-0.08206 0.447642,-0.129779 0.144928,-0.04772 0.28528,-0.100572 0.420353,-0.157933 0.135051,-0.05735 0.264096,-0.119445 0.388048,-0.187305 0.123969,-0.06786 0.241709,-0.141957 0.35335,-0.221201 0.111629,-0.07924 0.217426,-0.163372 0.31549,-0.25484 0.09826,-0.09033 0.189806,-0.187357 0.274192,-0.289682 0.08438,-0.10232 0.162095,-0.209609 0.233166,-0.322883 0.07108,-0.113278 0.135439,-0.232918 0.193721,-0.356094 0.05833,-0.123178 0.110798,-0.251083 0.156941,-0.383098 0.04613,-0.132011 0.08619,-0.267006 0.120701,-0.406772 0.03452,-0.139766 0.06258,-0.283909 0.08605,-0.430346 0.02347,-0.14644 0.04263,-0.295788 0.05563,-0.447818 0.01296,-0.15202 0.02087,-0.306747 0.0239,-0.463261 0.003,-0.156506 6.33e-4,-0.315582 -0.0056,-0.475495 -0.0064,-0.159918 -0.01779,-0.320755 -0.03291,-0.482991 -0.01511,-0.16223 -0.03295,-0.325638 -0.05668,-0.489065 -0.02291,-0.163543 -0.05155,-0.326201 -0.0828,-0.489827 -0.03101,-0.163648 -0.06449,-0.328418 -0.1026,-0.491182 -0.03811,-0.162772 -0.07985,-0.324889 -0.124479,-0.485733 -0.0893,-0.321691 -0.191136,-0.637152 -0.303216,-0.944946 -0.110122,-0.310405 -0.231132,-0.611335 -0.360326,-0.90515 -0.129162,-0.293815 -0.266258,-0.581178 -0.410568,-0.862473 -0.144318,-0.281307 -0.295784,-0.557161 -0.451356,-0.830078 -0.155566,-0.272918 -0.315561,-0.543223 -0.478484,-0.811938 -0.30893,-0.509515 -0.685821,-1.10645 -0.994751,-1.615966 -0.165949,-0.27298 -0.330218,-0.549537 -0.491841,-0.831078 -0.16162,-0.281534 -0.320653,-0.567303 -0.474056,-0.861725 -0.153,-0.292242 -0.301451,-0.59276 -0.447045,-0.895726 -0.145671,-0.303136 -0.288145,-0.609049 -0.432116,-0.915236 -0.143875,-0.305978 -0.288213,-0.611318 -0.436091,-0.912602 -0.147909,-0.301349 -0.299769,-0.599078 -0.457391,-0.88792 -0.157602,-0.288808 -0.32059,-0.568595 -0.493622,-0.837054 -0.08653,-0.134249 -0.175884,-0.265585 -0.267301,-0.393277 -0.09145,-0.127682 -0.184885,-0.253023 -0.282002,-0.373154 -0.09708,-0.120137 -0.197235,-0.235977 -0.300638,-0.347606 -0.103432,-0.111617 -0.210081,-0.21812 -0.320587,-0.320253 -0.110504,-0.10214 -0.225146,-0.19904 -0.34343,-0.290736 -0.118281,-0.09169 -0.240539,-0.177742 -0.367314,-0.25805 -0.12561,-0.08059 -0.255243,-0.155499 -0.389345,-0.224435 -0.134118,-0.06894 -0.272621,-0.132512 -0.414543,-0.190179 -0.141909,-0.05767 -0.287557,-0.110072 -0.436573,-0.156877 -0.149006,-0.0468 -0.301618,-0.08782 -0.457023,-0.124174 -0.155408,-0.03635 -0.31347,-0.06755 -0.474579,-0.09389 -0.161106,-0.02633 -0.326025,-0.04712 -0.492133,-0.06386 -0.166123,-0.01675 -0.333211,-0.02947 -0.503631,-0.03706 -0.170435,-0.0076 -0.34426,-0.01089 -0.518293,-0.0098 -0.174027,0.0011 -0.349696,0.0063 -0.526624,0.01566 -0.176915,0.0094 -0.354265,0.02316 -0.533375,0.04038 -0.179106,0.01723 -0.359784,0.03883 -0.540395,0.06344 -0.180659,0.02464 -0.36148,0.05209 -0.54294,0.08369 -0.181426,0.03158 -0.363691,0.06685 -0.545213,0.105 -0.18155,0.0381 -0.362062,0.07927 -0.543011,0.12351 -0.180924,0.04423 -0.361175,0.09185 -0.540808,0.141762 -0.179633,0.04993 -0.359654,0.102844 -0.537295,0.15806 -0.179041,0.05453 -0.356361,0.111534 -0.532739,0.171124 -0.17638,0.05959 -0.35105,0.121423 -0.524477,0.185856 -0.173401,0.06442 -0.346061,0.131353 -0.516217,0.200394 -0.170163,0.06905 -0.338162,0.140554 -0.504791,0.214002 -0.16665,0.07346 -0.330819,0.148497 -0.493636,0.226157 -0.162824,0.07766 -0.323788,0.156511 -0.48248,0.238177 -0.158653,0.08165 -0.315245,0.165528 -0.469474,0.250988 -0.154248,0.08546 -0.305628,0.172951 -0.455154,0.262046 -0.149487,0.08907 -0.29794,0.18086 -0.442415,0.273374 -0.14453,0.09255 -0.285976,0.18647 -0.425203,0.282305 -0.139233,0.09584 -0.275941,0.192593 -0.409571,0.291557 -0.13362,0.09895 -0.264354,0.199771 -0.392088,0.301697 -0.127737,0.101934 -0.251731,0.205471 -0.373291,0.31024 -0.121548,0.104757 -0.241276,0.210428 -0.356348,0.317883 -0.115081,0.107463 -0.225803,0.217044 -0.334118,0.327081 -0.108315,0.110046 -0.213021,0.220429 -0.31428,0.332935 -0.101041,0.113404 -0.19948,0.228144 -0.293362,0.343844 -0.0939,0.115714 -0.184238,0.232871 -0.271671,0.350803 -0.08744,0.117933 -0.171757,0.237188 -0.253417,0.357254 -0.08167,0.120075 -0.160421,0.240753 -0.237014,0.362874 -0.153194,0.244255 -0.295692,0.492594 -0.432731,0.744464 -0.137041,0.251861 -0.267635,0.506564 -0.394058,0.765186 -0.126424,0.258623 -0.249085,0.520664 -0.370435,0.785076 -0.121366,0.264448 -0.242421,0.531215 -0.364257,0.800345 -0.121716,0.268877 -0.244098,0.540219 -0.37182,0.812539 -0.127798,0.272466 -0.260379,0.546469 -0.399719,0.820965 -0.274927,0.550172 -0.576645,1.096592 -0.867702,1.63836 -0.145016,0.269938 -0.287498,0.537336 -0.420828,0.802018 -0.133382,0.264783 -0.256902,0.527016 -0.368114,0.784901 -0.0556,0.12894 -0.108925,0.257491 -0.157045,0.384447 -0.04811,0.126974 -0.0917,0.252102 -0.130958,0.376945 -0.03929,0.124841 -0.07383,0.24822 -0.103017,0.370805 -0.02915,0.122585 -0.05265,0.244334 -0.07033,0.364542 -0.01774,0.120216 -0.02976,0.239401 -0.03475,0.357142 -0.005,0.117741 -0.0035,0.23452 0.0056,0.349703 0.0091,0.115176 0.02591,0.228518 0.05038,0.341063 0.02446,0.112543 0.05748,0.223961 0.09862,0.3338 0.04094,0.108941 0.08999,0.217084 0.147624,0.323195 0.05765,0.106111 0.123476,0.209667 0.196634,0.312976 0.07318,0.103305 0.153933,0.205384 0.241437,0.305894 0.08751,0.100504 0.182132,0.200417 0.282804,0.298108 0.100647,0.0977 0.20788,0.19347 0.320468,0.288315 0.112598,0.09485 0.230304,0.188303 0.353654,0.280235 0.123353,0.09193 0.252075,0.182206 0.384989,0.271139 0.132909,0.08893 0.27029,0.176585 0.411575,0.26242 0.141288,0.08584 0.286257,0.170043 0.434731,0.252673 0.148454,0.08262 0.300266,0.163816 0.454717,0.243098 0.154462,0.07929 0.312012,0.156603 0.471271,0.232403 0.159272,0.07581 0.320208,0.149734 0.483078,0.221888 0.325697,0.144287 0.656986,0.281164 0.989962,0.409823 0.33299,0.12867 0.666852,0.248966 0.997594,0.360502 0.3304,0.109645 0.657939,0.209959 0.981183,0.301775 0.323202,0.0918 0.642782,0.175689 0.958754,0.250941 0.316009,0.07526 0.628431,0.142583 0.937134,0.202641 0.308748,0.06006 0.613651,0.112195 0.915015,0.158487 0.301323,0.04628 0.598811,0.08605 0.892667,0.120062 0.293815,0.034 0.58354,0.06294 0.869815,0.08625 0.286331,0.02325 0.56906,0.04156 0.847775,0.05582 0.278666,0.01425 0.552956,0.02493 0.823921,0.03184 0.542288,0.01383 1.070339,0.01379 1.598789,0.007 0.528397,-0.0068 1.056658,-0.02063 1.600712,-0.03675 0.543079,-0.01609 1.102679,-0.03361 1.690898,-0.04755 0.58834,-0.01394 1.207959,-0.02466 1.87093,-0.02459 0.667434,-0.0046 1.38035,0.0013 2.097617,-0.0099 0.358557,-0.0056 0.71756,-0.01589 1.073754,-0.03332 0.356183,-0.01741 0.709331,-0.04158 1.053256,-0.07786 -5e-6,-4e-6 -1.1e-5,-8e-6 -1.6e-5,-1.2e-5 z"
         inkscape:original-d="m 71.319737,90.960673 c -1.258766,0.222838 -2.518706,0.358529 -3.771641,0.402678 -10.023479,0.3532 -19.660976,-5.198904 -26.893784,-11.817315 -7.232806,-6.618411 -12.052537,-14.253697 -13.2809,-22.351134 -1.236727,-8.146354 1.018094,-16.738924 6.13628,-22.497097 5.109829,-5.80708 13.040667,-8.722666 21.272518,-10.179477 8.231849,-1.456817 16.772484,-1.406192 25.773191,1.93966 9.000706,3.345858 18.519776,10.02743 21.598369,19.268818 3.07025,9.192459 -0.34175,21.002429 -7.236203,29.984227 -6.025326,7.901877 -14.786475,13.689783 -23.59783,15.24964 z M 75.49395,71.096167 c 0.191979,-0.03785 0.381161,-0.07999 0.567652,-0.12425 0.186491,-0.04426 0.37028,-0.09145 0.549902,-0.143027 0.17962,-0.05157 0.356335,-0.106734 0.527715,-0.166502 0.171372,-0.05977 0.337888,-0.123748 0.499631,-0.192598 0.161751,-0.06885 0.318422,-0.143101 0.469173,-0.221929 0.150741,-0.07882 0.294764,-0.162437 0.433116,-0.252119 0.138362,-0.08968 0.269787,-0.185875 0.394389,-0.287305 0.124592,-0.101429 0.242678,-0.207826 0.352131,-0.321887 0.109665,-0.112756 0.211854,-0.23252 0.306037,-0.357634 0.09418,-0.125115 0.18092,-0.255249 0.260246,-0.391613 0.07933,-0.136365 0.15117,-0.279399 0.21622,-0.425895 0.0651,-0.146503 0.123666,-0.297878 0.175168,-0.453413 0.05149,-0.155533 0.0962,-0.313948 0.134719,-0.4774 0.03853,-0.163453 0.06985,-0.331424 0.09604,-0.501689 0.02619,-0.170265 0.04758,-0.343545 0.06209,-0.519518 0.01447,-0.175963 0.02329,-0.354719 0.02668,-0.535276 0.0033,-0.180543 7.07e-4,-0.363772 -0.0063,-0.547809 -0.0071,-0.184038 -0.01986,-0.36893 -0.03673,-0.555343 -0.01687,-0.186412 -0.03678,-0.374109 -0.06326,-0.561714 -0.02557,-0.187759 -0.05754,-0.374399 -0.09242,-0.562185 -0.03461,-0.187831 -0.07198,-0.376987 -0.114516,-0.563861 -0.04253,-0.186875 -0.08912,-0.373058 -0.138937,-0.557872 -0.09967,-0.369618 -0.213339,-0.732521 -0.338431,-1.08722 -0.122906,-0.357756 -0.257982,-0.705288 -0.402175,-1.045432 -0.144159,-0.34015 -0.297185,-0.67375 -0.458251,-1.001317 -0.161067,-0.327565 -0.330148,-0.649908 -0.503777,-0.969912 -0.173622,-0.320005 -0.352222,-0.63818 -0.534055,-0.95565 -0.363676,-0.634938 -0.73983,-1.269154 -1.110282,-1.924089 -0.185225,-0.327466 -0.368567,-0.660355 -0.548964,-1.000358 -0.180397,-0.340002 -0.357887,-0.686176 -0.529112,-1.043736 -0.17078,-0.354951 -0.336453,-0.72077 -0.498966,-1.090691 -0.162507,-0.369922 -0.321691,-0.744806 -0.482302,-1.120801 -0.160613,-0.375996 -0.321658,-0.752319 -0.486739,-1.125494 -0.16508,-0.373176 -0.334591,-0.743616 -0.510512,-1.105076 -0.17592,-0.361459 -0.35781,-0.7137 -0.550952,-1.054545 -0.09657,-0.170425 -0.196317,-0.337946 -0.298345,-0.501555 -0.102063,-0.163605 -0.206359,-0.324912 -0.314754,-0.480577 -0.108357,-0.155671 -0.220142,-0.306761 -0.335554,-0.453394 -0.115448,-0.146626 -0.234476,-0.287676 -0.35782,-0.424145 -0.123335,-0.13647 -0.251298,-0.267324 -0.383316,-0.392525 -0.132018,-0.125201 -0.268476,-0.244251 -0.409974,-0.357073 -0.140196,-0.113044 -0.284889,-0.219875 -0.434564,-0.320157 -0.149685,-0.100278 -0.304293,-0.194776 -0.462688,-0.282634 -0.158384,-0.08786 -0.320961,-0.169939 -0.487277,-0.245719 -0.166315,-0.07578 -0.336644,-0.145057 -0.510102,-0.209103 -0.173458,-0.06404 -0.349874,-0.122202 -0.529696,-0.174858 -0.179822,-0.05265 -0.363885,-0.09901 -0.54929,-0.140611 -0.185407,-0.04161 -0.37192,-0.07844 -0.562123,-0.109338 -0.190214,-0.0309 -0.384258,-0.05693 -0.578488,-0.07746 -0.194231,-0.02054 -0.390317,-0.03627 -0.587786,-0.04679 -0.19748,-0.01052 -0.395391,-0.01558 -0.595321,-0.01643 -0.199931,-8.49e-4 -0.401546,0.0037 -0.603157,0.01217 -0.20161,0.0085 -0.403493,0.02063 -0.605997,0.0381 -0.202514,0.01746 -0.405913,0.03965 -0.608535,0.06581 -0.202633,0.02609 -0.404114,0.0564 -0.606076,0.09083 -0.201963,0.03442 -0.403095,0.07349 -0.603618,0.115853 -0.20052,0.04238 -0.4014,0.08881 -0.599696,0.138814 -0.19983,0.04892 -0.397754,0.101531 -0.594612,0.157937 -0.196855,0.05641 -0.391831,0.116255 -0.58539,0.179988 -0.193558,0.06373 -0.386234,0.131157 -0.57617,0.202042 -0.189935,0.07089 -0.377429,0.145631 -0.563418,0.223491 -0.185979,0.07786 -0.369267,0.158509 -0.550967,0.243174 -0.181707,0.08467 -0.361421,0.171553 -0.538516,0.262856 -0.177094,0.09131 -0.351843,0.186232 -0.523998,0.284005 -0.172164,0.09777 -0.341123,0.199015 -0.508016,0.303083 -0.1669,0.104066 -0.332492,0.21228 -0.493797,0.322466 -0.161305,0.110188 -0.319202,0.22304 -0.474587,0.339175 -0.155393,0.11614 -0.307999,0.234271 -0.457139,0.356188 -0.149148,0.121919 -0.295046,0.247135 -0.437625,0.374663 -0.142569,0.127526 -0.28097,0.258108 -0.416645,0.391072 -0.135676,0.132964 -0.269287,0.267786 -0.397734,0.406016 -0.128448,0.13823 -0.252027,0.280263 -0.372923,0.423587 -0.120886,0.143324 -0.23777,0.287915 -0.350781,0.436163 -0.112787,0.149552 -0.222636,0.301581 -0.327433,0.4558 -0.104805,0.154222 -0.205635,0.311174 -0.303223,0.469839 -0.0976,0.158667 -0.191705,0.319832 -0.282849,0.482717 -0.09115,0.162886 -0.179058,0.327248 -0.264541,0.494128 -0.170965,0.333761 -0.330053,0.67561 -0.482988,1.024003 -0.152943,0.348393 -0.298733,0.702655 -0.439824,1.063883 -0.141091,0.361227 -0.27803,0.728919 -0.413458,1.101182 -0.135427,0.372264 -0.27061,0.749398 -0.406562,1.130902 -0.135944,0.3815 -0.272355,0.767027 -0.415003,1.15597 -0.142656,0.388944 -0.290604,0.781245 -0.446142,1.175833 -0.305861,0.788283 -0.644614,1.584761 -0.968478,2.37377 -0.161927,0.394504 -0.320819,0.786423 -0.469703,1.176222 -0.148885,0.389799 -0.286726,0.777063 -0.410867,1.1589 -0.06206,0.190918 -0.121568,0.381434 -0.175284,0.569755 -0.0537,0.188318 -0.102357,0.374027 -0.146167,0.559328 -0.04385,0.185306 -0.08241,0.368469 -0.114982,0.550363 -0.03254,0.181892 -0.05876,0.362437 -0.0785,0.540497 -0.0198,0.178073 -0.03322,0.354418 -0.03879,0.528258 -0.0056,0.173841 -0.0039,0.345911 0.0062,0.515115 0.0102,0.169189 0.02892,0.335149 0.05623,0.499302 0.0273,0.164153 0.06415,0.325948 0.110068,0.48465 0.04569,0.157396 0.100442,0.312842 0.164769,0.464399 0.06435,0.151554 0.137817,0.298479 0.219471,0.444147 0.08168,0.145666 0.171808,0.288601 0.269477,0.428333 0.09768,0.139732 0.203277,0.27761 0.31565,0.411357 0.112337,0.133753 0.232021,0.263724 0.357687,0.391452 0.125675,0.127729 0.257051,0.252559 0.394727,0.374218 0.137685,0.121658 0.281346,0.239977 0.429702,0.35552 0.148356,0.115542 0.30167,0.228347 0.459376,0.337727 0.157699,0.109382 0.3195,0.215597 0.48522,0.318772 0.165711,0.103176 0.335125,0.203496 0.507528,0.300418 0.172404,0.09692 0.348248,0.190281 0.526005,0.280905 0.177767,0.09063 0.3574,0.178015 0.539183,0.262295 0.363574,0.168561 0.733238,0.324432 1.104936,0.467343 0.37169,0.142914 0.744275,0.272652 1.113455,0.389551 0.368735,0.11429 0.734391,0.214955 1.095138,0.303622 0.360746,0.08866 0.717429,0.16607 1.070104,0.231562 0.352673,0.06549 0.701456,0.120035 1.045974,0.164802 0.344517,0.04476 0.685009,0.07891 1.021285,0.105406 0.336276,0.02649 0.668399,0.04448 0.996341,0.05515 0.327951,0.01066 0.651302,0.01496 0.970836,0.01225 0.319532,-0.0028 0.635205,-0.0117 0.946236,-0.02535 0.311038,-0.01365 0.617169,-0.03139 0.919612,-0.05352 0.604898,-0.04425 1.195019,-0.104402 1.784473,-0.172209 0.589455,-0.06781 1.179688,-0.143946 1.786619,-0.223468 0.60693,-0.07952 1.229967,-0.161264 1.88728,-0.240665 0.657324,-0.0794 1.347597,-0.156658 2.08822,-0.224106 0.74495,-0.07356 1.540665,-0.137832 2.341235,-0.221898 0.400279,-0.04204 0.800819,-0.08948 1.19846,-0.144786 0.397644,-0.05529 0.79162,-0.117914 1.175582,-0.193586 z" />
      <path
         id="path15699"
         style="fill:#3771c8;stroke-width:0.446859"
         d="m 62.724318,36.396188 c -9.000699,1.69027 -18.218339,5.194218 -24.308291,9.798662 -6.217427,4.676427 -9.358501,10.347938 -7.709049,14.947115 1.625738,4.53305 8.325387,9.131059 14.435249,13.797905 6.053703,4.623951 12.039363,9.71758 17.188377,10.501242 5.40087,0.859745 10.058889,-2.742242 15.145084,-7.007756 5.012976,-4.204108 10.091068,-8.751077 12.114627,-16.142979 2.052007,-7.350749 1.015781,-17.252199 -3.973067,-22.295942 -5.005896,-5.10659 -13.83559,-5.264476 -22.89293,-3.598247 z m -2.648234,11.708923 c 0.164336,-0.01587 0.328591,-0.02869 0.492861,-0.03915 0.164261,-0.01056 0.329333,-0.01848 0.492862,-0.02364 0.164586,-0.0061 0.328175,-0.0095 0.491425,-0.01016 0.163246,-6.64e-4 0.325487,0.0013 0.487115,0.0061 0.161636,0.0048 0.323067,0.0123 0.482803,0.02265 0.159745,0.01034 0.318057,0.02376 0.475619,0.03961 0.157536,0.01585 0.313362,0.03416 0.468435,0.05553 0.155061,0.02137 0.308932,0.04472 0.461249,0.07162 0.152351,0.0269 0.303304,0.05678 0.452628,0.0892 0.14932,0.03242 0.29656,0.06791 0.44257,0.105849 0.146033,0.03795 0.291506,0.07905 0.433948,0.122496 0.142406,0.04344 0.282485,0.08949 0.421016,0.138408 0.138526,0.04892 0.275152,0.09991 0.409521,0.154285 0.134391,0.05439 0.266637,0.111795 0.396588,0.171612 0.129946,0.05981 0.256995,0.12268 0.38222,0.187891 0.125224,0.06521 0.249066,0.132288 0.369287,0.202854 0.120229,0.07057 0.2371,0.144827 0.352044,0.220705 0.114926,0.07587 0.226878,0.153579 0.336239,0.234695 0.109377,0.08206 0.216736,0.166567 0.320431,0.253729 0.103691,0.08716 0.204602,0.177125 0.303189,0.269085 0.09859,0.09196 0.194754,0.186483 0.288821,0.28295 0.09406,0.09646 0.185769,0.194752 0.275887,0.295419 0.180235,0.201332 0.352205,0.411279 0.520163,0.627685 0.167956,0.216402 0.331101,0.43907 0.491426,0.66824 0.160332,0.229179 0.318274,0.464513 0.475618,0.704211 0.157339,0.23969 0.315184,0.483842 0.474182,0.731878 0.159198,0.248346 0.318739,0.499567 0.48424,0.75416 0.165332,0.254331 0.335261,0.511209 0.511543,0.769792 0.348285,0.517247 0.723687,1.040121 1.086308,1.564422 0.181359,0.262223 0.35981,0.523933 0.530221,0.78674 0.170377,0.262758 0.33163,0.526139 0.481366,0.788349 0.07487,0.131107 0.147644,0.262434 0.215537,0.393156 0.06787,0.130698 0.131418,0.260352 0.19111,0.390473 0.05969,0.130127 0.114949,0.25952 0.165246,0.38887 0.0503,0.12935 0.09538,0.258633 0.135069,0.386989 0.03968,0.128359 0.07416,0.256328 0.102022,0.383465 0.02786,0.127136 0.04983,0.253903 0.06466,0.379575 0.01483,0.125672 0.0224,0.24999 0.02299,0.373944 5.89e-4,0.123953 -0.0067,0.247249 -0.02156,0.369221 -0.01486,0.120987 -0.03714,0.241494 -0.06754,0.360086 -0.03041,0.118592 -0.06862,0.234672 -0.113516,0.350571 -0.0449,0.115899 -0.09684,0.230555 -0.155187,0.343477 -0.05835,0.112926 -0.123235,0.225135 -0.193982,0.334818 -0.07075,0.109682 -0.147804,0.217132 -0.229907,0.323322 -0.0821,0.106189 -0.169105,0.210605 -0.261519,0.313072 -0.09242,0.102471 -0.190011,0.202829 -0.291694,0.301362 -0.101685,0.09853 -0.207652,0.195271 -0.317558,0.289668 -0.109902,0.09439 -0.223471,0.18659 -0.34055,0.276663 -0.117082,0.09008 -0.237451,0.178129 -0.360665,0.263718 -0.123212,0.08559 -0.24961,0.168608 -0.377908,0.249552 -0.128291,0.08094 -0.25851,0.159437 -0.390841,0.235598 -0.2647,0.152343 -0.535831,0.294908 -0.81042,0.427395 -0.274583,0.132485 -0.551554,0.25455 -0.827663,0.366362 -0.276073,0.109898 -0.551569,0.208992 -0.824789,0.298492 -0.273231,0.0895 -0.544753,0.169998 -0.814731,0.241221 -0.269959,0.07122 -0.538364,0.133863 -0.804673,0.188874 -0.26628,0.055 -0.530945,0.101843 -0.793177,0.142664 -0.262254,0.04082 -0.522438,0.07508 -0.780245,0.103685 -0.257832,0.02861 -0.512888,0.05222 -0.765875,0.07053 -0.252951,0.01831 -0.5038,0.03183 -0.751507,0.04172 -0.247736,0.0099 -0.492169,0.0165 -0.734263,0.01978 -0.483755,0.0066 -0.959311,9.54e-4 -1.434041,-0.01006 -0.474384,-0.01101 -0.952884,-0.02787 -1.442663,-0.04615 -0.492341,-0.01837 -0.992408,-0.03728 -1.524567,-0.05324 -0.531388,-0.01593 -1.08556,-0.02883 -1.681191,-0.03334 -0.59888,-0.0082 -1.236647,-0.0085 -1.880921,-0.02178 -0.322243,-0.0067 -0.645099,-0.01688 -0.967045,-0.03227 -0.321972,-0.0154 -0.641637,-0.03562 -0.955548,-0.06449 -0.156849,-0.01438 -0.312182,-0.03166 -0.46556,-0.05028 -0.153433,-0.01863 -0.305075,-0.03918 -0.454066,-0.06259 -0.148981,-0.02341 -0.296126,-0.04911 -0.439696,-0.07784 -0.143563,-0.02872 -0.283836,-0.06019 -0.421016,-0.09478 -0.137167,-0.03459 -0.271085,-0.07264 -0.400899,-0.113635 -0.129827,-0.041 -0.254968,-0.08513 -0.376472,-0.133087 -0.121491,-0.04796 -0.238411,-0.100075 -0.350607,-0.155537 -0.112206,-0.05547 -0.21993,-0.114107 -0.321869,-0.177644 -0.101931,-0.06273 -0.198903,-0.129917 -0.290256,-0.200543 -0.09136,-0.07063 -0.177514,-0.144494 -0.258645,-0.222313 -0.08113,-0.07782 -0.157223,-0.159865 -0.22847,-0.244173 -0.07125,-0.08431 -0.138013,-0.171733 -0.199732,-0.261864 -0.06172,-0.09014 -0.118455,-0.182208 -0.170992,-0.277504 -0.05254,-0.09529 -0.09999,-0.193551 -0.143691,-0.293354 -0.0437,-0.0998 -0.08405,-0.201562 -0.119265,-0.305224 -0.03522,-0.103667 -0.06633,-0.209234 -0.0934,-0.316129 -0.02708,-0.106897 -0.04968,-0.215669 -0.06898,-0.325163 -0.01929,-0.109494 -0.03413,-0.219808 -0.04598,-0.331269 -0.01184,-0.111458 -0.02111,-0.223834 -0.02587,-0.336625 -0.0048,-0.112795 -0.0049,-0.225389 -0.0029,-0.338883 0.002,-0.113498 0.006,-0.227982 0.01437,-0.341543 0.0084,-0.113558 0.02005,-0.227051 0.03449,-0.340036 0.02887,-0.225965 0.06973,-0.449289 0.120701,-0.66906 0.04884,-0.221382 0.108719,-0.438114 0.176741,-0.651715 0.06802,-0.213603 0.143944,-0.424581 0.227032,-0.633253 0.08308,-0.208655 0.173235,-0.415561 0.267266,-0.622051 0.09403,-0.20649 0.192264,-0.413021 0.293131,-0.620024 0.201751,-0.414045 0.413468,-0.831441 0.617874,-1.263061 0.102207,-0.215818 0.202179,-0.435248 0.298878,-0.659202 0.0967,-0.22396 0.190245,-0.45181 0.277324,-0.686296 0.08707,-0.232849 0.168642,-0.472124 0.24715,-0.713941 0.07848,-0.24174 0.153746,-0.48679 0.229906,-0.732955 0.0762,-0.24632 0.152657,-0.493227 0.23278,-0.739566 0.08011,-0.246287 0.164075,-0.492098 0.254334,-0.734127 0.09027,-0.242043 0.186474,-0.480004 0.293132,-0.713616 0.05332,-0.116794 0.109528,-0.232523 0.168117,-0.346443 0.05859,-0.113927 0.119285,-0.227006 0.183926,-0.337551 0.06463,-0.110542 0.132574,-0.219077 0.204042,-0.325732 0.07147,-0.106657 0.14652,-0.210745 0.225596,-0.313006 0.07907,-0.102256 0.162564,-0.20212 0.250023,-0.299471 0.08746,-0.09735 0.17926,-0.191964 0.275888,-0.283896 0.09556,-0.09184 0.195525,-0.180927 0.300316,-0.267124 0.104782,-0.08619 0.214271,-0.169976 0.327615,-0.250594 0.113348,-0.08062 0.230801,-0.158695 0.352045,-0.2338 0.121249,-0.07511 0.246551,-0.14718 0.375034,-0.216819 0.128485,-0.06964 0.260097,-0.136413 0.395153,-0.20062 0.135048,-0.0642 0.274312,-0.125502 0.415267,-0.1843 0.140962,-0.0588 0.283435,-0.115043 0.429638,-0.168456 0.146179,-0.05341 0.296122,-0.104682 0.44688,-0.152715 0.150775,-0.04804 0.303686,-0.09358 0.458376,-0.13626 0.154717,-0.04268 0.310467,-0.08215 0.468435,-0.119468 0.157958,-0.03732 0.317945,-0.07167 0.478492,-0.103624 0.160517,-0.03195 0.321801,-0.06174 0.48424,-0.08832 0.162468,-0.02659 0.32626,-0.05042 0.489989,-0.07165 0.163728,-0.02123 0.3271,-0.03964 0.491424,-0.05551 5e-6,-2e-6 1e-5,-3e-6 1.5e-5,-5e-6 z"
         inkscape:original-d="m 60.692583,28.940935 c -10.097626,-0.09097 -20.282641,2.138926 -27.131465,8.506549 -6.892728,6.367622 -10.492195,16.918548 -8.604381,25.514836 1.887817,8.596288 9.219036,15.237656 16.111764,21.059484 6.892727,5.821828 13.301676,10.824542 19.184642,10.278753 5.926867,-0.500319 11.328395,-6.549882 16.90404,-12.37171 C 82.73283,76.107019 88.43977,70.512883 90.678808,62.553352 92.961747,54.593828 91.819952,44.268981 86.244307,37.901358 80.712565,31.533735 70.746306,29.077383 60.692583,28.940935 Z m -2.9558,15.236088 c 0.183403,-7.3e-5 0.366771,0.004 0.550102,0.01123 0.183331,0.0071 0.367588,0.01785 0.550103,0.03207 0.183701,0.01304 0.366289,0.02961 0.548499,0.04972 0.182211,0.02009 0.363284,0.04351 0.543689,0.07057 0.180404,0.02705 0.360592,0.0575 0.538876,0.09142 0.178285,0.03391 0.355008,0.07161 0.530857,0.112266 0.17585,0.04066 0.349739,0.0842 0.522839,0.131512 0.173098,0.04732 0.344785,0.09689 0.514819,0.150756 0.170034,0.05387 0.338542,0.111289 0.505197,0.171607 0.166655,0.06032 0.331008,0.124187 0.49397,0.190852 0.16296,0.06667 0.325395,0.137187 0.484347,0.210097 0.158952,0.07291 0.315285,0.148686 0.469913,0.22774 0.154627,0.07906 0.307095,0.160286 0.457083,0.245381 0.149989,0.0851 0.297614,0.173592 0.442648,0.264627 0.145036,0.09103 0.286844,0.185395 0.426611,0.282269 0.139766,0.09687 0.277993,0.195697 0.412176,0.298306 0.134184,0.10261 0.264645,0.209308 0.39293,0.317552 0.128286,0.108244 0.253217,0.218211 0.37529,0.331987 0.122072,0.114961 0.241917,0.232551 0.357646,0.352836 0.115731,0.120285 0.228367,0.243579 0.338402,0.368873 0.110036,0.125295 0.217375,0.253319 0.322364,0.383309 0.104989,0.129988 0.207338,0.261769 0.307929,0.396138 0.201182,0.268737 0.393096,0.546402 0.580575,0.830768 0.187479,0.284365 0.369539,0.574988 0.5485,0.872467 0.178961,0.297477 0.355231,0.601284 0.530857,0.909353 0.175627,0.30807 0.351775,0.620475 0.529254,0.936619 0.17748,0.316144 0.355964,0.635769 0.54048,0.957468 0.184516,0.321699 0.374215,0.645561 0.570953,0.970299 0.388735,0.649472 0.807737,1.301216 1.212472,1.948615 0.202367,0.3237 0.401655,0.645576 0.591802,0.96709 0.190145,0.321515 0.370164,0.642458 0.537272,0.960676 0.08355,0.159109 0.164802,0.318251 0.240569,0.476328 0.07576,0.158077 0.146678,0.314612 0.213306,0.471518 0.06662,0.156905 0.128299,0.312713 0.184438,0.468308 0.05614,0.155596 0.10646,0.310956 0.150756,0.465101 0.04429,0.154147 0.08277,0.307733 0.11387,0.460291 0.0311,0.152558 0.05562,0.304649 0.07217,0.455479 0.01655,0.150831 0.025,0.300099 0.02566,0.449064 6.58e-4,0.148965 -0.0075,0.297291 -0.02406,0.444252 -0.01659,0.145776 -0.04145,0.291196 -0.07538,0.43463 -0.03394,0.143433 -0.07659,0.284156 -0.1267,0.425006 -0.05012,0.14085 -0.10809,0.280567 -0.17321,0.418592 -0.06512,0.138026 -0.137551,0.275611 -0.216512,0.410572 -0.07896,0.134962 -0.164971,0.267691 -0.256608,0.399346 -0.09164,0.131656 -0.188745,0.261615 -0.291892,0.389724 -0.103147,0.12811 -0.212082,0.254174 -0.325571,0.378496 -0.11349,0.124322 -0.231774,0.246976 -0.35444,0.367271 -0.122665,0.120294 -0.249426,0.238412 -0.380101,0.354438 -0.130673,0.116026 -0.265036,0.230092 -0.402553,0.34161 -0.137516,0.111517 -0.278606,0.220408 -0.421799,0.327174 -0.143192,0.106768 -0.288531,0.210966 -0.436233,0.312742 -0.295403,0.203552 -0.598102,0.396825 -0.904542,0.578971 -0.306441,0.182146 -0.615645,0.352799 -0.923789,0.511612 -0.308143,0.156442 -0.615621,0.300398 -0.92058,0.433026 -0.304959,0.132627 -0.608025,0.254704 -0.909354,0.365665 -0.301329,0.110962 -0.600873,0.211675 -0.898128,0.303119 -0.297255,0.09144 -0.59256,0.172912 -0.885297,0.246985 -0.292737,0.07407 -0.583089,0.14002 -0.870863,0.19887 -0.287773,0.05885 -0.572458,0.111396 -0.854824,0.157173 -0.282367,0.04578 -0.562273,0.08543 -0.838787,0.120285 -0.276515,0.03485 -0.549323,0.06535 -0.819541,0.09142 -0.540437,0.05215 -1.070228,0.08804 -1.600591,0.117077 -0.530364,0.02903 -1.062667,0.05084 -1.610215,0.07217 -0.547548,0.02133 -1.109639,0.04314 -1.70163,0.07217 -0.591992,0.02903 -1.21275,0.06493 -1.876445,0.117078 -0.668435,0.04741 -1.380272,0.110654 -2.099372,0.157172 -0.359551,0.02326 -0.72014,0.04178 -1.079358,0.05293 -0.359216,0.01115 -0.716308,0.01531 -1.066526,0.0064 -0.175108,-0.0044 -0.348397,-0.01312 -0.519631,-0.02406 -0.171233,-0.01094 -0.340525,-0.02488 -0.506801,-0.0433 -0.166274,-0.01843 -0.330527,-0.04046 -0.490762,-0.06736 -0.160234,-0.0269 -0.316804,-0.05825 -0.469913,-0.09462 -0.153108,-0.03637 -0.302559,-0.07827 -0.44746,-0.125096 -0.1449,-0.04683 -0.284585,-0.0989 -0.420195,-0.157173 -0.13561,-0.05828 -0.266092,-0.123343 -0.391327,-0.194059 -0.125235,-0.07072 -0.245475,-0.1468 -0.359251,-0.230947 -0.113776,-0.08296 -0.221997,-0.173237 -0.323967,-0.269438 -0.101971,-0.0962 -0.19813,-0.197957 -0.288684,-0.306326 -0.09056,-0.108369 -0.175478,-0.223752 -0.255004,-0.343213 -0.07953,-0.119461 -0.15404,-0.244205 -0.222929,-0.373685 -0.06889,-0.12948 -0.132214,-0.262526 -0.190851,-0.40095 -0.05864,-0.138424 -0.111603,-0.281921 -0.16038,-0.428215 -0.04878,-0.146294 -0.09381,-0.295972 -0.133116,-0.449063 -0.03931,-0.15309 -0.07403,-0.309496 -0.104247,-0.468309 -0.03022,-0.158813 -0.05545,-0.320887 -0.07699,-0.484347 -0.02153,-0.163461 -0.0381,-0.32854 -0.05132,-0.495575 -0.01322,-0.167035 -0.02356,-0.335662 -0.02888,-0.505196 -0.0054,-0.169534 -0.0055,-0.339048 -0.0032,-0.510009 0.0022,-0.17096 0.0067,-0.343507 0.01604,-0.514819 0.0094,-0.171312 0.02238,-0.342625 0.03849,-0.513215 0.03222,-0.341181 0.07783,-0.678547 0.134719,-1.010394 0.05452,-0.334216 0.121343,-0.661244 0.197268,-0.983128 0.07592,-0.321885 0.16066,-0.639328 0.2534,-0.952657 0.09274,-0.313329 0.193345,-0.623256 0.298306,-0.931807 0.104962,-0.308551 0.214584,-0.616237 0.327175,-0.923788 0.225183,-0.615102 0.461489,-1.23145 0.689634,-1.865219 0.114073,-0.316883 0.225665,-0.638268 0.33359,-0.965487 0.107924,-0.327217 0.212349,-0.659441 0.309533,-1.00077 0.09718,-0.338958 0.188225,-0.686737 0.275854,-1.037658 0.08763,-0.350921 0.171571,-0.705719 0.256607,-1.061714 0.08503,-0.355996 0.170409,-0.712346 0.259815,-1.066527 0.08941,-0.354181 0.183134,-0.706615 0.283873,-1.052092 0.10074,-0.345477 0.20814,-0.683717 0.327176,-1.0136 0.05952,-0.164943 0.122247,-0.327803 0.187643,-0.487555 0.06539,-0.159753 0.13314,-0.317816 0.205287,-0.471518 0.07214,-0.153701 0.147971,-0.303877 0.227739,-0.450667 0.07977,-0.146789 0.163539,-0.289198 0.251797,-0.428214 0.08826,-0.139017 0.181442,-0.273775 0.279061,-0.404157 0.09762,-0.130382 0.200079,-0.256006 0.30793,-0.376894 0.106664,-0.120887 0.218232,-0.23697 0.335194,-0.348024 0.11696,-0.111054 0.239149,-0.21775 0.365665,-0.319156 0.126518,-0.101405 0.2576,-0.198344 0.392931,-0.290287 0.135332,-0.09194 0.275186,-0.178754 0.418591,-0.26142 0.143406,-0.08266 0.290307,-0.160581 0.441046,-0.234155 0.150738,-0.07357 0.306166,-0.142223 0.463497,-0.206889 0.157332,-0.06466 0.316353,-0.125286 0.479536,-0.181229 0.163182,-0.05595 0.330488,-0.108162 0.498781,-0.155569 0.168294,-0.04741 0.338947,-0.09085 0.511612,-0.129908 0.172665,-0.03905 0.346545,-0.07336 0.522839,-0.104246 0.176293,-0.03089 0.354882,-0.05728 0.534064,-0.08019 0.179183,-0.02291 0.359151,-0.04263 0.54048,-0.05773 0.181331,-0.01511 0.364158,-0.02618 0.546897,-0.03368 0.182738,-0.0075 0.365094,-0.01115 0.548498,-0.01123 z" />
      <path
         id="path15687"
         style="fill:#71c837;stroke-width:0.459591"
         d="m 73.455463,30.20082 c -3.877776,0.842212 -8.247735,2.609159 -11.944898,4.208053 -7.175974,3.130853 -12.437096,5.968325 -17.176045,9.684924 -4.689134,3.622617 -8.754291,7.960823 -10.102342,12.592568 -1.367478,4.698506 -0.126808,10.126931 4.598277,14.46477 4.608385,4.289407 12.883857,7.628684 21.069165,9.330011 8.325505,1.69435 16.634245,1.716628 21.893816,-3.034266 5.188505,-4.769768 7.232697,-14.234212 7.429232,-23.985712 0.196535,-9.751501 -1.376771,-19.625116 -6.604583,-22.653326 -2.452224,-1.420449 -5.685052,-1.362309 -9.162622,-0.607022 z m -7.924909,18.181367 c 0.231824,-0.02521 0.461035,-0.03882 0.687454,-0.03728 0.228567,0.0013 0.455084,0.01754 0.680079,0.04574 0.224986,0.02819 0.448568,0.06872 0.671228,0.119947 0.222658,0.05123 0.44375,0.113043 0.665326,0.183401 0.221618,0.07037 0.443545,0.150089 0.665326,0.235603 0.443772,0.171107 0.88761,0.367902 1.339506,0.575013 0.451575,0.206965 0.909675,0.423242 1.379335,0.632417 0.474933,0.209352 0.959585,0.409106 1.448671,0.617301 0.487817,0.207653 0.977567,0.422804 1.457522,0.657899 0.240084,0.1176 0.478545,0.24069 0.712534,0.370624 0.233958,0.129916 0.463818,0.266392 0.68893,0.412328 0.225133,0.145949 0.444414,0.301513 0.65795,0.467194 0.213536,0.16568 0.420409,0.342011 0.619594,0.531128 0.199204,0.187153 0.390778,0.386491 0.572387,0.597129 0.181605,0.210632 0.353102,0.431815 0.513379,0.662234 0.160282,0.230427 0.310298,0.46973 0.445519,0.71607 0.135209,0.246319 0.256492,0.500121 0.362905,0.758283 0.106409,0.258156 0.197563,0.520979 0.27144,0.786749 0.07387,0.265764 0.130567,0.533494 0.168177,0.802496 0.03761,0.268996 0.0555,0.538791 0.0531,0.806527 -0.0024,0.267735 -0.02468,0.533792 -0.07081,0.795685 -0.04613,0.261904 -0.115356,0.520405 -0.205055,0.772651 -0.08971,0.252255 -0.20081,0.497881 -0.328976,0.737604 -0.128166,0.239724 -0.273675,0.472283 -0.435192,0.696798 -0.161526,0.224531 -0.338365,0.4411 -0.52813,0.647939 -0.189783,0.206855 -0.393406,0.40474 -0.606318,0.591616 -0.212893,0.18686 -0.43589,0.362323 -0.666802,0.527121 -0.230919,0.164804 -0.468706,0.318295 -0.712533,0.459126 -0.243853,0.140844 -0.49334,0.270157 -0.744989,0.385274 -0.25157,0.115081 -0.506601,0.216618 -0.764167,0.308743 -0.257548,0.09212 -0.517439,0.174772 -0.780394,0.251088 -0.524878,0.152335 -1.063556,0.280989 -1.60652,0.411854 -0.545303,0.13143 -1.095057,0.264087 -1.653727,0.427425 -0.278762,0.0815 -0.558184,0.171241 -0.839403,0.270272 -0.281238,0.09904 -0.563674,0.207994 -0.846779,0.330701 -0.285095,0.12069 -0.571358,0.254008 -0.858581,0.395903 -0.287106,0.141838 -0.575181,0.29209 -0.864482,0.444428 -0.581359,0.306124 -1.16056,0.618832 -1.751093,0.904968 -0.294165,0.142535 -0.588578,0.278168 -0.885135,0.400844 -0.296519,0.122659 -0.595009,0.232478 -0.893986,0.325766 -0.298951,0.09328 -0.598413,0.169234 -0.899887,0.223948 -0.150726,0.02736 -0.301526,0.0496 -0.452894,0.06563 -0.151374,0.01603 -0.303819,0.02656 -0.455844,0.0302 -0.152005,0.0036 -0.304887,4.81e-4 -0.457321,-0.0084 -0.152424,-0.0089 -0.303702,-0.02446 -0.455844,-0.04499 -0.304297,-0.04119 -0.608371,-0.104638 -0.907264,-0.188537 -0.298868,-0.08388 -0.592946,-0.188135 -0.880708,-0.309163 -0.287777,-0.121054 -0.568436,-0.258732 -0.839404,-0.411598 -0.270949,-0.152854 -0.533428,-0.320388 -0.78187,-0.500042 -0.248455,-0.179665 -0.483434,-0.372169 -0.703682,-0.573925 -0.220257,-0.201762 -0.42587,-0.41293 -0.612219,-0.632405 -0.186362,-0.21949 -0.353347,-0.447497 -0.500102,-0.680659 -0.144671,-0.234712 -0.26856,-0.475394 -0.374706,-0.721273 -0.106149,-0.245888 -0.19448,-0.49623 -0.269966,-0.752008 -0.07549,-0.255771 -0.137622,-0.516697 -0.190304,-0.780945 -0.05268,-0.264246 -0.0965,-0.531787 -0.134247,-0.802931 -0.07553,-0.542594 -0.128831,-1.096958 -0.191778,-1.656088 -0.03145,-0.279332 -0.06465,-0.559464 -0.104741,-0.83968 -0.0401,-0.280223 -0.08649,-0.560566 -0.143096,-0.839192 C 54.135358,58.706475 54.067522,58.42833 53.995767,58.152532 53.924,57.876693 53.84782,57.6039 53.771533,57.335481 c -0.15244,-0.536367 -0.303276,-1.056842 -0.410113,-1.548736 -0.05346,-0.246161 -0.0963,-0.484702 -0.122444,-0.716705 -0.02614,-0.232014 -0.0354,-0.456623 -0.0236,-0.672775 0.01179,-0.216155 0.0444,-0.424373 0.104741,-0.623109 0.03017,-0.09937 0.06781,-0.196473 0.112118,-0.291209 0.0443,-0.09474 0.09514,-0.187116 0.154899,-0.277037 0.0587,-0.08986 0.125086,-0.177011 0.199155,-0.262058 0.07406,-0.08504 0.156717,-0.167892 0.244886,-0.248517 0.176331,-0.161243 0.379602,-0.314507 0.604843,-0.46033 0.225257,-0.145831 0.471993,-0.283871 0.736138,-0.417065 0.264106,-0.133173 0.544958,-0.261632 0.837927,-0.384803 0.293015,-0.123191 0.598362,-0.241668 0.910214,-0.357393 0.311841,-0.11572 0.630867,-0.22844 0.951521,-0.339207 0.641327,-0.221542 1.289561,-0.435826 1.905989,-0.652712 0.618121,-0.214038 1.200696,-0.428103 1.76142,-0.632163 0.558588,-0.203282 1.091371,-0.394254 1.603569,-0.558863 0.256262,-0.08236 0.508588,-0.158731 0.755316,-0.225861 0.246774,-0.06714 0.488669,-0.125629 0.727285,-0.173749 0.238618,-0.04813 0.473322,-0.08574 0.705159,-0.110988 -10e-7,-4e-6 -2e-6,-9e-6 -3e-6,-1.4e-5 z"
         inkscape:original-d="m 72.670048,23.951693 c -4.396849,-0.0509 -9.136924,0.899097 -13.332183,1.998921 -7.940827,2.118402 -13.950113,4.814066 -19.170878,9.484175 -5.264637,4.621973 -9.740112,11.219165 -11.275632,19.500191 -1.535518,8.281034 -0.132315,18.247207 5.132323,24.457976 5.220765,6.258925 14.303032,8.713654 23.516146,8.906234 9.256986,0.144438 18.601599,-2.022021 24.436572,-8.23279 5.7911,-6.258916 8.072706,-16.514028 8.292066,-27.057893 0.219361,-10.543867 -1.536669,-21.329038 -7.371641,-25.999155 -2.735143,-2.189115 -6.3472,-3.012743 -10.226773,-3.057659 z m -8.845311,21.266946 c 0.258775,-0.0058 0.514553,0.0032 0.767295,0.03129 0.255084,0.02808 0.507967,0.07494 0.759064,0.136665 0.251097,0.06172 0.500683,0.138773 0.749184,0.228871 0.248501,0.0901 0.495304,0.193052 0.742598,0.30626 0.247294,0.113208 0.495121,0.237778 0.742597,0.368829 0.494955,0.262103 0.991054,0.554324 1.495076,0.85621 0.504022,0.301887 1.015326,0.612647 1.539532,0.912194 0.528887,0.299546 1.072237,0.586736 1.61692,0.879262 0.544683,0.292525 1.090892,0.590632 1.626799,0.9089 0.267955,0.159134 0.534136,0.323901 0.795288,0.495614 0.261153,0.171712 0.517664,0.350038 0.768943,0.538425 0.251279,0.188386 0.49603,0.386898 0.734365,0.596054 0.238336,0.209156 0.469235,0.429542 0.691554,0.663563 0.22232,0.231681 0.436182,0.476356 0.638864,0.732718 0.202685,0.256363 0.394123,0.523645 0.573003,0.800228 0.178879,0.276583 0.346354,0.56222 0.497262,0.854563 0.150906,0.292343 0.286286,0.592086 0.405052,0.895728 0.118765,0.303641 0.220512,0.611593 0.302966,0.922072 0.08245,0.31048 0.145732,0.622389 0.187709,0.935246 0.04198,0.312856 0.06195,0.626119 0.05927,0.936892 -0.0027,0.310772 -0.02755,0.619492 -0.07903,0.923718 -0.05149,0.304228 -0.128755,0.604886 -0.228871,0.899021 -0.100118,0.294135 -0.224138,0.581387 -0.367183,0.862797 -0.143045,0.28141 -0.305466,0.555581 -0.485735,0.821632 -0.180269,0.266053 -0.37768,0.524174 -0.589468,0.772237 -0.211789,0.248061 -0.439131,0.487167 -0.676736,0.714606 -0.237603,0.227439 -0.486529,0.442914 -0.744244,0.647097 -0.257715,0.204183 -0.523165,0.396354 -0.795287,0.57465 -0.272123,0.178294 -0.550688,0.344193 -0.831512,0.493966 -0.280825,0.149774 -0.565401,0.284279 -0.852918,0.408347 -0.287516,0.124067 -0.577479,0.237505 -0.871029,0.34413 -0.587099,0.213252 -1.185818,0.399694 -1.793102,0.592761 -0.607283,0.193068 -1.223589,0.39164 -1.845792,0.630633 -0.311101,0.119497 -0.623048,0.250153 -0.936891,0.393527 -0.313843,0.143373 -0.629198,0.300341 -0.945125,0.475855 -0.318269,0.173176 -0.637652,0.363513 -0.958297,0.566416 -0.320645,0.202903 -0.641788,0.417677 -0.964883,0.637219 -0.64619,0.439081 -1.298036,0.89839 -1.954465,1.325478 -0.328214,0.213545 -0.657051,0.419964 -0.987935,0.610875 -0.330883,0.190909 -0.664188,0.366773 -0.997814,0.521958 -0.333626,0.155185 -0.667959,0.288804 -1.004401,0.395173 -0.168221,0.05319 -0.336555,0.09979 -0.505493,0.138312 -0.168938,0.03852 -0.339121,0.06997 -0.508786,0.09221 -0.169666,0.02223 -0.340289,0.03555 -0.510434,0.04117 -0.170145,0.0056 -0.338956,0.002 -0.508786,-0.0082 -0.339659,-0.02059 -0.679007,-0.07147 -1.012634,-0.151484 -0.333625,-0.08 -0.661765,-0.188931 -0.982994,-0.322725 -0.321232,-0.133822 -0.634421,-0.292286 -0.936893,-0.474237 -0.302472,-0.181951 -0.595325,-0.386395 -0.872676,-0.610872 -0.277351,-0.224478 -0.539541,-0.469701 -0.785408,-0.731073 -0.245869,-0.261372 -0.4753,-0.538876 -0.683322,-0.831512 -0.208023,-0.292636 -0.394369,-0.600511 -0.558184,-0.918779 -0.161473,-0.320608 -0.299752,-0.652705 -0.418225,-0.994521 -0.118473,-0.341817 -0.217072,-0.692344 -0.30132,-1.052151 -0.08425,-0.359807 -0.153608,-0.728615 -0.212406,-1.103195 -0.0588,-0.374579 -0.107714,-0.75493 -0.149838,-1.141064 -0.08425,-0.772269 -0.143845,-1.565277 -0.214052,-2.364458 -0.03511,-0.39959 -0.07215,-0.800495 -0.116905,-1.201988 -0.04476,-0.401491 -0.09653,-0.803458 -0.159716,-1.203633 -0.06318,-0.402517 -0.138914,-0.802762 -0.218993,-1.200342 -0.08008,-0.397579 -0.165152,-0.791961 -0.250277,-1.180581 -0.17025,-0.777243 -0.338392,-1.533572 -0.457743,-2.250846 -0.05967,-0.358637 -0.107485,-0.706307 -0.136665,-1.043918 -0.02918,-0.337611 -0.03951,-0.663845 -0.02634,-0.976409 0.01316,-0.312563 0.04956,-0.612234 0.116906,-0.895727 0.03368,-0.141748 0.07569,-0.279561 0.125139,-0.413287 0.04945,-0.133725 0.106192,-0.263386 0.172889,-0.388587 0.06552,-0.125201 0.139614,-0.245672 0.222285,-0.362244 0.08267,-0.116571 0.174912,-0.229017 0.273328,-0.337543 0.196834,-0.217055 0.423664,-0.419194 0.675089,-0.607582 0.251426,-0.188385 0.526803,-0.362498 0.821633,-0.526898 0.294829,-0.164399 0.608201,-0.319236 0.935245,-0.464329 0.327044,-0.145093 0.667857,-0.281173 1.015926,-0.41164 0.34807,-0.130467 0.704125,-0.254895 1.062031,-0.375415 0.715811,-0.24104 1.439332,-0.467154 2.127352,-0.696494 0.688022,-0.22466 1.342033,-0.451298 1.965992,-0.661917 0.623958,-0.210619 1.217627,-0.403988 1.789808,-0.563122 0.286091,-0.07957 0.567589,-0.151084 0.843038,-0.210759 0.27545,-0.05967 0.545408,-0.108148 0.811753,-0.143251 0.266345,-0.03511 0.52828,-0.05672 0.787056,-0.06257 z" />
      <path
         id="path15397"
         style="fill:#ff6600;stroke-width:0.509935"
         d="m 59.937437,36.118474 c -7.663611,1.543198 -15.046177,3.701747 -18.92683,6.932152 -4.44511,3.700281 -4.302984,8.880203 -4.302984,14.246869 -0.0478,5.367561 -0.191125,10.505313 4.253987,15.565449 4.211575,4.822465 13.713224,10.789954 21.36618,11.635347 8.050359,0.88929 14.461294,-3.711027 21.50792,-9.448908 C 90.736572,69.4302 97.774795,63.086307 98.701043,55.222101 99.633649,47.303973 94.374029,39.229439 87.515733,35.963532 80.710732,32.767004 71.952855,33.872383 63.235984,35.489872 c -1.100849,0.199667 -2.200966,0.407586 -3.298547,0.628606 z m 1.051685,11.053223 c 0.257816,-0.02724 0.519242,-0.04998 0.782202,-0.06944 0.527494,-0.03909 1.055949,-0.06536 1.585402,-0.09334 0.524591,-0.02334 1.052809,-0.04852 1.573153,-0.06921 0.522993,-0.0208 1.049018,-0.03731 1.585402,-0.04523 0.268383,-0.004 0.540412,-0.006 0.815449,-0.0047 0.275124,0.0013 0.554216,0.0061 0.838198,0.01412 0.28392,0.008 0.572964,0.01963 0.867947,0.03576 0.294941,0.01613 0.596485,0.03616 0.904694,0.06199 0.310932,0.02325 0.628692,0.05238 0.948442,0.08831 0.319773,0.03593 0.641896,0.07939 0.96069,0.131112 0.318756,0.05171 0.633464,0.112041 0.941442,0.182623 0.153979,0.03529 0.305523,0.07292 0.454972,0.113493 0.149475,0.04058 0.297253,0.08409 0.440973,0.130338 0.143699,0.04624 0.283255,0.09562 0.419974,0.147893 0.136719,0.05227 0.270461,0.106839 0.398975,0.165501 0.128506,0.05866 0.251901,0.119969 0.370977,0.18536 0.119097,0.0654 0.234538,0.134373 0.342979,0.206848 0.108434,0.07247 0.211425,0.14903 0.307981,0.228891 0.09655,0.07985 0.186039,0.163584 0.269483,0.251129 0.08345,0.08755 0.160118,0.179487 0.229236,0.275007 0.06911,0.09552 0.130177,0.195358 0.183739,0.299106 0.05356,0.103749 0.100095,0.2111 0.138241,0.322956 0.03814,0.111853 0.06851,0.227055 0.09274,0.346518 0.02423,0.119465 0.04243,0.242702 0.05425,0.369288 0.01182,0.126585 0.0166,0.256776 0.0175,0.389996 8.96e-4,0.13322 -0.002,0.270473 -0.0105,0.409855 -0.0085,0.139384 -0.02207,0.281081 -0.0385,0.42616 -0.03287,0.290177 -0.08096,0.591837 -0.136492,0.902124 -0.111042,0.620543 -0.255317,1.276205 -0.384975,1.958017 -0.06483,0.340883 -0.125264,0.688298 -0.17674,1.040415 -0.02574,0.176067 -0.04984,0.354156 -0.07,0.53261 -0.02015,0.178464 -0.03594,0.357569 -0.049,0.538181 -0.01306,0.180609 -0.0221,0.361634 -0.028,0.544006 -0.0059,0.182371 -0.0087,0.36623 -0.0088,0.550112 -1.22e-4,0.367761 0.0093,0.737627 0.0245,1.109746 0.03037,0.744236 0.08106,1.495684 0.108493,2.241335 0.01372,0.372824 0.02231,0.744605 0.01924,1.113036 -0.0015,0.184212 -0.0063,0.367793 -0.014,0.550229 -0.0077,0.182438 -0.01973,0.364323 -0.03499,0.544504 -0.01527,0.180175 -0.03361,0.357756 -0.05774,0.535182 -0.02415,0.177429 -0.05314,0.354399 -0.0875,0.528556 -0.03435,0.174159 -0.07484,0.346167 -0.120743,0.51652 -0.0459,0.170344 -0.09696,0.338028 -0.15574,0.504018 -0.05748,0.166062 -0.121597,0.329838 -0.192488,0.491039 -0.07089,0.161208 -0.149043,0.319944 -0.232735,0.475847 -0.08369,0.155897 -0.173608,0.30868 -0.269484,0.458852 -0.09587,0.150171 -0.197032,0.2976 -0.304481,0.441644 -0.107456,0.144053 -0.221062,0.284994 -0.33948,0.422535 -0.118421,0.137546 -0.242206,0.27276 -0.370976,0.403428 -0.128759,0.130658 -0.26223,0.257617 -0.400726,0.381057 -0.138506,0.123452 -0.282842,0.242655 -0.430473,0.358564 -0.147621,0.115901 -0.298839,0.228341 -0.454972,0.3364 -0.156154,0.108074 -0.317166,0.212533 -0.48122,0.312477 -0.163999,0.09991 -0.330933,0.194327 -0.502219,0.285852 -0.171349,0.09156 -0.346944,0.179395 -0.524968,0.262317 -0.178005,0.08291 -0.358398,0.16215 -0.542466,0.236201 -0.184058,0.07405 -0.370458,0.143722 -0.559965,0.208699 -0.1895,0.06498 -0.383127,0.12414 -0.577465,0.179857 -0.194342,0.05572 -0.389396,0.107202 -0.587964,0.153487 -0.199877,0.04616 -0.402002,0.08722 -0.605462,0.123641 -0.203476,0.03643 -0.408153,0.06839 -0.614212,0.09498 -0.206067,0.02659 -0.413562,0.04868 -0.621212,0.06535 -0.207632,0.01666 -0.416497,0.02829 -0.624711,0.03496 -0.208173,0.0067 -0.416957,0.0073 -0.624711,0.0039 -0.207804,-0.0034 -0.414828,-0.01137 -0.621212,-0.02488 -0.206361,-0.0135 -0.412021,-0.03231 -0.615962,-0.05595 -0.203954,-0.02367 -0.404928,-0.05216 -0.605463,-0.08603 -0.200519,-0.03387 -0.400612,-0.07315 -0.596713,-0.117269 -0.196128,-0.04412 -0.388505,-0.0927 -0.579214,-0.147123 -0.190664,-0.05441 -0.379221,-0.114868 -0.563465,-0.179627 -0.184281,-0.06477 -0.363856,-0.134328 -0.540717,-0.209518 -0.176851,-0.07518 -0.351286,-0.154963 -0.519718,-0.240645 -0.168426,-0.08568 -0.330963,-0.17717 -0.489969,-0.273438 -0.159007,-0.09627 -0.313385,-0.197685 -0.461972,-0.304657 -0.148592,-0.106977 -0.291552,-0.218758 -0.428724,-0.336581 -0.138464,-0.11793 -0.271675,-0.241831 -0.398974,-0.37007 -0.127302,-0.128241 -0.250159,-0.261694 -0.367478,-0.39902 -0.117334,-0.137343 -0.229192,-0.278619 -0.337729,-0.423847 -0.108534,-0.145224 -0.21231,-0.294395 -0.313231,-0.44631 -0.100912,-0.151904 -0.199499,-0.306183 -0.293982,-0.46359 -0.09449,-0.157421 -0.185488,-0.317789 -0.274732,-0.479531 -0.178492,-0.32349 -0.348108,-0.653974 -0.512719,-0.987624 -0.329207,-0.66727 -0.638927,-1.345851 -0.96944,-1.995919 -0.16526,-0.32504 -0.336425,-0.642938 -0.516218,-0.948919 -0.08989,-0.152978 -0.181185,-0.303385 -0.276483,-0.449733 -0.09531,-0.146359 -0.193833,-0.288966 -0.295732,-0.427445 -0.101903,-0.138485 -0.208284,-0.272147 -0.31673,-0.402411 -0.108445,-0.130263 -0.219106,-0.257359 -0.332479,-0.379975 -0.113374,-0.122616 -0.229788,-0.240619 -0.346479,-0.356181 -0.116685,-0.115558 -0.233339,-0.228642 -0.351728,-0.33776 -0.236819,-0.21827 -0.476496,-0.423026 -0.710456,-0.619306 -0.234111,-0.196405 -0.462356,-0.383494 -0.680709,-0.563069 -0.218165,-0.179422 -0.424704,-0.351112 -0.614212,-0.518988 -0.09474,-0.08393 -0.186074,-0.166796 -0.271233,-0.24884 -0.08517,-0.08206 -0.164012,-0.164336 -0.237985,-0.245189 -0.07398,-0.08085 -0.143576,-0.160143 -0.204738,-0.240477 -0.06117,-0.08034 -0.114244,-0.160893 -0.160989,-0.241419 -0.04674,-0.08052 -0.08653,-0.16125 -0.117243,-0.242662 -0.03071,-0.08141 -0.05343,-0.163934 -0.0665,-0.246965 -0.01306,-0.08303 -0.0169,-0.166561 -0.01225,-0.251696 0.0047,-0.08513 0.01763,-0.172149 0.0385,-0.259367 0.02086,-0.08722 0.05016,-0.175439 0.08574,-0.264709 0.03559,-0.08927 0.07892,-0.178992 0.127742,-0.270273 0.04883,-0.09128 0.103918,-0.184093 0.16449,-0.277333 0.06058,-0.09325 0.12515,-0.18675 0.195988,-0.281892 0.141617,-0.190205 0.304016,-0.384906 0.477721,-0.582166 0.173715,-0.197271 0.359083,-0.397943 0.552965,-0.601348 0.193491,-0.202995 0.396726,-0.409819 0.598463,-0.617777 0.202353,-0.208593 0.405035,-0.419426 0.603713,-0.631516 0.198514,-0.211915 0.391045,-0.424238 0.573964,-0.637887 0.182889,-0.211589 0.35565,-0.423341 0.519718,-0.633956 0.164061,-0.210606 0.32001,-0.42041 0.470721,-0.626659 0.301447,-0.412529 0.581826,-0.812494 0.862697,-1.187875 0.140428,-0.187681 0.281734,-0.369747 0.425224,-0.543343 0.143503,-0.173614 0.288937,-0.339556 0.440972,-0.495938 0.07601,-0.07819 0.153565,-0.154225 0.232736,-0.227517 0.07918,-0.0733 0.160215,-0.143234 0.243235,-0.211244 0.08301,-0.068 0.167948,-0.134156 0.255485,-0.196476 0.08754,-0.06232 0.178483,-0.121543 0.271233,-0.177782 0.09276,-0.05625 0.187109,-0.108545 0.285232,-0.158825 0.0981,-0.05027 0.199659,-0.09824 0.302731,-0.142927 0.103082,-0.04469 0.207317,-0.08693 0.31498,-0.126399 0.107679,-0.03948 0.218857,-0.07546 0.33073,-0.110105 0.111854,-0.03464 0.225568,-0.06723 0.341229,-0.09741 0.115661,-0.03018 0.232648,-0.0585 0.351729,-0.0846 0.238205,-0.0522 0.4819,-0.09607 0.731454,-0.134233 0.249536,-0.03817 0.50517,-0.07055 0.762953,-0.09778 1.6e-5,-9e-6 3.3e-5,-1.8e-5 5e-5,-2.7e-5 z"
         inkscape:original-d="m 57.582033,27.82031 c -8.563509,-0.01333 -16.783802,0.849895 -21.125,5.072266 -4.961367,4.825566 -4.802734,13.99068 -4.802734,23.203125 -0.05335,9.212444 -0.213322,18.424692 4.748047,25.638672 4.961369,7.26272 15.045223,12.478429 23.847656,11.308594 C 69.052425,91.873132 76.573745,84.268666 84.255861,77.054686 91.937982,69.840709 99.834047,62.966862 100.84766,55.167967 101.86128,47.369071 96.045403,38.597049 88.363283,33.771482 80.681166,28.99466 71.079707,28.068017 61.263674,27.873045 c -1.227006,-0.03046 -2.458282,-0.05083 -3.681641,-0.05273 z m 1.173828,15.214844 c 0.287702,-6.83e-4 0.579604,0.0052 0.873047,0.01563 0.586886,0.02078 1.180459,0.05876 1.769532,0.09375 0.589075,0.04083 1.171524,0.07844 1.755859,0.121094 0.584335,0.04265 1.170251,0.09061 1.769531,0.150391 0.29964,0.02989 0.603089,0.06256 0.910156,0.09961 0.307068,0.03704 0.618592,0.07889 0.935547,0.125 0.316955,0.04611 0.639447,0.0972 0.96875,0.154297 0.329304,0.05709 0.665653,0.119464 1.009766,0.189453 0.347029,0.06707 0.701723,0.141816 1.058594,0.224609 0.35687,0.08279 0.716488,0.1746 1.072265,0.275391 0.355777,0.100791 0.707034,0.210963 1.050782,0.332031 0.171873,0.06053 0.340996,0.123423 0.507812,0.189453 0.166816,0.06603 0.331796,0.13522 0.492188,0.207032 0.160391,0.07181 0.31615,0.146732 0.46875,0.224609 0.152599,0.07788 0.301871,0.157959 0.445312,0.242188 0.143441,0.08423 0.281147,0.170855 0.414062,0.261718 0.132916,0.09086 0.261791,0.185419 0.382813,0.283203 0.121022,0.09778 0.235987,0.199699 0.34375,0.304688 0.107763,0.104989 0.207645,0.213693 0.300781,0.326172 0.09314,0.112479 0.178717,0.229356 0.25586,0.349609 0.07714,0.120254 0.145296,0.244734 0.205078,0.373047 0.05978,0.128313 0.111721,0.26014 0.154297,0.396484 0.04257,0.136344 0.07647,0.275889 0.103515,0.419922 0.02704,0.144033 0.04736,0.291979 0.06055,0.44336 0.01319,0.15138 0.01853,0.306457 0.01953,0.464843 10e-4,0.158387 -0.0022,0.321278 -0.01172,0.486328 -0.0095,0.165051 -0.02463,0.332534 -0.04297,0.503907 -0.03668,0.342745 -0.09037,0.698469 -0.152344,1.064453 -0.123939,0.731967 -0.28497,1.505935 -0.429687,2.314453 -0.07236,0.404259 -0.139807,0.817032 -0.197266,1.236328 -0.02873,0.209648 -0.05563,0.421871 -0.07813,0.634766 -0.02249,0.212894 -0.04011,0.426779 -0.05469,0.642578 -0.01458,0.215799 -0.02467,0.43225 -0.03125,0.650391 -0.0066,0.21814 -0.0097,0.438143 -0.0098,0.658203 -1.36e-4,0.440119 0.01039,0.882856 0.02734,1.328125 0.0339,0.890536 0.09047,1.788786 0.121093,2.679687 0.01531,0.445451 0.0249,0.889595 0.02148,1.330078 -0.0017,0.220242 -0.007,0.439835 -0.01563,0.658203 -0.0086,0.218368 -0.02202,0.436272 -0.03906,0.652344 -0.01704,0.216073 -0.03751,0.429223 -0.06445,0.642578 -0.02695,0.213356 -0.05931,0.426502 -0.09766,0.636719 -0.03834,0.210217 -0.08353,0.418342 -0.134766,0.625 -0.05123,0.206658 -0.108214,0.410605 -0.173828,0.613281 -0.06416,0.202677 -0.135719,0.403284 -0.214844,0.601563 -0.07912,0.198279 -0.166356,0.394418 -0.259765,0.58789 -0.09341,0.193472 -0.193771,0.384011 -0.300782,0.572266 -0.10701,0.188255 -0.219914,0.374013 -0.339843,0.556641 -0.119929,0.182627 -0.246743,0.362472 -0.378907,0.539062 -0.132163,0.17659 -0.270348,0.351342 -0.414062,0.521484 -0.143714,0.170143 -0.292684,0.336716 -0.447266,0.5 -0.154581,0.163285 -0.315703,0.322499 -0.480468,0.478516 -0.164766,0.156017 -0.333547,0.308692 -0.507813,0.457031 -0.174266,0.14834 -0.354026,0.293343 -0.537109,0.433594 -0.183083,0.140251 -0.369331,0.274497 -0.560547,0.40625 -0.191217,0.131753 -0.387271,0.259967 -0.585938,0.382813 -0.198666,0.122845 -0.400036,0.241941 -0.605468,0.355468 -0.205433,0.113527 -0.413485,0.222374 -0.625,0.326172 -0.211516,0.103799 -0.427616,0.201262 -0.644532,0.294922 -0.216915,0.09366 -0.434618,0.182513 -0.65625,0.265625 -0.22309,0.08311 -0.448692,0.160451 -0.675781,0.232422 -0.227088,0.07197 -0.455576,0.138799 -0.685547,0.199219 -0.22997,0.06042 -0.461623,0.115603 -0.693359,0.164062 -0.231736,0.04846 -0.46488,0.09086 -0.697266,0.126953 -0.232385,0.03609 -0.465347,0.06458 -0.697265,0.08789 -0.231919,0.02331 -0.463025,0.04067 -0.69336,0.05078 -0.230335,0.01012 -0.459865,0.01325 -0.6875,0.0098 -0.227635,-0.0035 -0.451962,-0.01375 -0.675781,-0.03125 -0.223819,-0.0175 -0.447129,-0.0423 -0.666016,-0.07422 -0.218886,-0.03192 -0.433646,-0.07044 -0.646484,-0.117187 -0.212838,-0.04675 -0.423234,-0.102071 -0.628906,-0.164063 -0.205673,-0.06199 -0.406125,-0.13134 -0.603516,-0.208984 -0.197391,-0.07764 -0.392085,-0.162154 -0.580078,-0.25586 -0.187993,-0.09371 -0.369397,-0.196462 -0.546875,-0.30664 -0.177478,-0.110178 -0.349777,-0.228409 -0.515625,-0.355469 -0.165848,-0.12706 -0.325415,-0.261898 -0.478516,-0.40625 -0.154558,-0.144352 -0.303216,-0.298035 -0.445312,-0.458984 -0.142097,-0.16095 -0.279201,-0.330113 -0.410156,-0.50586 -0.130956,-0.175747 -0.255817,-0.35813 -0.376954,-0.546875 -0.121136,-0.188744 -0.23697,-0.384042 -0.349609,-0.583984 -0.112638,-0.199942 -0.222663,-0.403941 -0.328125,-0.613281 -0.105462,-0.209341 -0.207034,-0.423687 -0.30664,-0.640625 -0.199214,-0.433877 -0.388545,-0.880515 -0.572266,-1.333985 -0.367442,-0.90694 -0.713132,-1.839361 -1.082031,-2.738281 -0.18445,-0.44946 -0.375501,-0.890549 -0.576172,-1.316406 C 52.44258,63.93945 52.340695,63.729754 52.234322,63.525426 52.127949,63.321098 52.017976,63.121697 51.904244,62.927769 51.790512,62.733842 51.671762,62.546376 51.550728,62.363316 51.429694,62.180256 51.30617,62.001219 51.179635,61.82816 51.053099,61.655101 50.923154,61.488176 50.792916,61.324254 50.662678,61.160331 50.532478,60.999437 50.400338,60.843785 50.136056,60.53248 49.868461,60.238532 49.607369,59.955113 49.346277,59.671694 49.091107,59.399212 48.847603,59.136754 48.6041,58.874295 48.373573,58.621506 48.162056,58.373082 48.056298,58.24887 47.954384,58.125943 47.859322,58.003941 c -0.09506,-0.122002 -0.18306,-0.244576 -0.265625,-0.365234 -0.08257,-0.120658 -0.160247,-0.239196 -0.228516,-0.359375 -0.06827,-0.12018 -0.127514,-0.240761 -0.179687,-0.361328 -0.05217,-0.120567 -0.09658,-0.241462 -0.130859,-0.363281 -0.03428,-0.12182 -0.05964,-0.245202 -0.07422,-0.369141 -0.01458,-0.123939 -0.01886,-0.248413 -0.01367,-0.375 0.0052,-0.126587 0.01968,-0.255701 0.04297,-0.384766 0.02328,-0.129065 0.05598,-0.259253 0.0957,-0.390625 0.03972,-0.131371 0.08808,-0.262977 0.142578,-0.396484 0.0545,-0.133508 0.115985,-0.268824 0.183594,-0.404297 0.06761,-0.135473 0.139693,-0.270936 0.21875,-0.408203 0.158113,-0.274534 0.339275,-0.5533 0.533203,-0.833984 0.193928,-0.280685 0.40075,-0.564141 0.617187,-0.84961 0.216438,-0.285469 0.442327,-0.572441 0.667969,-0.861328 0.225642,-0.288887 0.452287,-0.580157 0.673828,-0.871094 0.221541,-0.290937 0.43649,-0.581426 0.640625,-0.873047 0.204134,-0.288704 0.39695,-0.577037 0.580078,-0.863281 0.183128,-0.286244 0.357163,-0.570747 0.525391,-0.849609 0.336457,-0.557725 0.649399,-1.095079 0.96289,-1.59375 0.156746,-0.249336 0.314447,-0.489607 0.47461,-0.716797 0.160163,-0.227191 0.322501,-0.442454 0.492187,-0.642578 0.08484,-0.100063 0.171397,-0.19669 0.259766,-0.289063 0.08837,-0.09237 0.178827,-0.179603 0.271484,-0.263672 0.09266,-0.08407 0.187447,-0.165085 0.285157,-0.240234 0.09771,-0.07515 0.199209,-0.145323 0.302734,-0.210937 0.103526,-0.06562 0.208853,-0.125373 0.318359,-0.181641 0.109506,-0.05627 0.222837,-0.108702 0.337891,-0.15625 0.115054,-0.04755 0.231394,-0.09141 0.351562,-0.130859 0.120169,-0.03945 0.244291,-0.07348 0.369141,-0.105469 0.12485,-0.03199 0.25176,-0.06079 0.380859,-0.08594 0.1291,-0.02515 0.259663,-0.04747 0.392579,-0.06641 0.26583,-0.03786 0.537908,-0.06331 0.816406,-0.08008 0.278497,-0.01677 0.563861,-0.02471 0.851562,-0.02539 z" />
    </g>
  </g>
</svg>
